<?xml version="1.0" standalone="no"?>
<!DOCTYPE svg PUBLIC "-//W3C//DTD SVG 20010904//EN"
 "http://www.w3.org/TR/2001/REC-SVG-20010904/DTD/svg10.dtd">
<svg version="1.0" xmlns="http://www.w3.org/2000/svg"
 width="1890.000000pt" height="1417.000000pt" viewBox="0 0 1890.000000 1417.000000"
 preserveAspectRatio="xMidYMid meet">

<g transform="translate(0.000000,1417.000000) scale(0.100000,-0.100000)"
fill="#000000" stroke="none">
<path d="M4878 12842 l-86 -87 50 -60 c171 -208 259 -497 229 -747 -27 -223
-113 -410 -291 -634 -240 -302 -344 -567 -343 -879 0 -204 42 -373 139 -567
52 -103 147 -248 192 -291 l28 -27 82 84 82 84 -65 86 c-77 102 -144 236 -181
361 -32 111 -44 316 -24 429 29 165 114 351 229 501 209 273 275 384 336 567
103 310 80 624 -70 934 -44 91 -139 239 -193 301 l-28 32 -86 -87z"/>
<path d="M6837 12842 c-87 -87 -88 -88 -68 -106 37 -33 121 -163 166 -258 68
-140 97 -265 98 -418 2 -278 -75 -464 -330 -796 -303 -395 -383 -795 -243
-1216 53 -157 186 -393 267 -470 l29 -28 83 84 84 84 -46 59 c-112 142 -189
305 -223 474 -24 121 -15 323 20 444 35 122 122 291 204 398 211 276 275 386
337 569 103 310 80 624 -70 934 -44 91 -139 239 -193 301 l-28 32 -87 -87z"/>
<path d="M5813 12838 l-82 -83 31 -35 c49 -56 117 -166 158 -254 99 -211 120
-449 60 -676 -31 -116 -128 -300 -222 -423 -230 -301 -311 -456 -364 -702 -24
-111 -24 -341 0 -453 52 -244 139 -420 323 -649 9 -12 26 1 96 74 l85 88 -37
45 c-62 74 -101 136 -146 233 -106 224 -128 456 -65 687 33 120 128 301 222
423 229 299 311 457 364 702 23 110 24 330 1 448 -34 168 -116 362 -217 513
-53 78 -107 144 -119 144 -3 0 -43 -37 -88 -82z"/>
<path d="M330 8603 c0 -108 19 -396 36 -538 96 -839 387 -1640 849 -2340 205
-311 410 -561 685 -836 354 -354 725 -641 1138 -877 l123 -70 -63 -6 c-35 -3
-182 -15 -328 -26 -1391 -109 -2309 -293 -2483 -499 -61 -73 -15 -151 132
-225 802 -404 4364 -623 7486 -461 1753 91 2995 288 3281 521 267 216 -349
436 -1656 588 -244 29 -666 68 -974 91 -115 8 -211 17 -213 18 -1 2 37 25 85
52 390 216 792 518 1127 847 l130 127 55 -14 c183 -48 496 -81 905 -96 388
-14 669 -8 827 20 775 135 1438 816 1728 1772 140 465 179 1005 95 1337 -47
183 -150 356 -269 453 -220 179 -541 245 -1059 220 -875 -43 -785 -42 -789
-17 l-3 21 -5422 3 -5423 2 0 -67z m12060 -323 c325 -29 467 -129 541 -382 18
-60 22 -108 26 -271 3 -118 1 -242 -6 -310 -79 -747 -447 -1446 -956 -1812
-114 -82 -323 -187 -440 -220 -181 -52 -254 -58 -670 -52 -209 4 -443 11 -520
17 -143 11 -376 38 -383 44 -2 2 31 47 72 101 612 782 1009 1788 1094 2765 l7
85 55 2 c134 6 738 34 770 37 90 7 306 5 410 -4z"/>
<path d="M13986 7941 l-88 -6 1 -140 c1 -77 4 -169 7 -205 3 -36 1 -159 -5
-274 -5 -115 -7 -215 -4 -223 4 -11 29 -13 122 -11 l116 3 -4 195 c-2 126 0
191 7 185 5 -5 42 -86 82 -180 90 -214 93 -217 133 -213 31 3 33 6 113 201 45
109 85 201 89 205 4 4 6 -83 4 -193 l-4 -200 124 0 125 0 0 430 0 430 -114 -2
c-62 -2 -115 -5 -117 -7 -2 -2 -48 -95 -101 -207 -54 -112 -103 -213 -110
-224 -12 -20 -12 -20 -24 0 -7 11 -55 112 -107 225 -51 113 -98 208 -105 212
-6 4 -20 7 -31 6 -11 -1 -60 -4 -109 -7z"/>
<path d="M16960 7919 c-20 -4 -47 -21 -63 -40 -25 -27 -28 -38 -24 -72 8 -61
43 -90 115 -95 51 -4 62 -1 89 22 92 78 8 212 -117 185z"/>
<path d="M15072 7671 c-66 -23 -123 -77 -154 -145 -19 -42 -23 -68 -23 -151 0
-89 3 -106 27 -150 32 -62 102 -128 152 -145 63 -20 149 -9 200 27 47 33 56
33 56 -3 0 -29 10 -32 115 -25 l90 6 2 245 c1 135 3 261 5 280 3 34 2 35 -46
47 -98 24 -135 27 -141 9 -3 -9 -7 -23 -10 -32 -4 -13 -8 -12 -27 7 -54 51
-150 63 -246 30z m219 -199 c26 -23 33 -38 37 -80 4 -49 2 -54 -31 -87 -30
-30 -42 -35 -81 -35 -67 0 -107 38 -114 108 -4 49 -2 54 31 87 30 30 42 35 81
35 36 0 52 -6 77 -28z"/>
<path d="M15627 7664 c-4 -4 -7 -36 -7 -72 l0 -64 75 -75 75 -76 -75 -79 -76
-79 3 -67 3 -67 78 -3 c42 -2 84 1 91 5 8 4 36 36 63 70 l50 61 49 -66 49 -67
90 0 90 0 3 68 3 68 -71 73 c-38 40 -70 76 -70 81 0 5 32 41 70 81 l70 72 0
65 c0 36 -4 68 -8 71 -5 3 -48 2 -96 -1 l-87 -6 -46 -60 -47 -60 -55 61 -56
60 -80 7 c-45 3 -84 3 -88 -1z"/>
<path d="M16243 7664 c-9 -4 -13 -28 -13 -71 l0 -64 76 -75 76 -74 -76 -82
-77 -82 3 -66 3 -65 70 -3 c38 -2 79 -1 91 2 11 3 43 35 71 71 l50 65 52 -70
51 -71 88 3 87 3 3 68 3 67 -71 75 c-38 40 -70 77 -70 81 0 4 32 40 70 80 l71
73 -3 68 -3 68 -90 -3 c-90 -3 -90 -3 -120 -39 -16 -20 -39 -48 -51 -61 l-21
-25 -44 56 c-24 31 -53 59 -64 61 -35 9 -149 15 -162 10z"/>
<path d="M16876 7660 c-1 -3 0 -133 3 -290 l6 -285 108 -3 107 -3 2 226 c1
124 3 254 3 290 l0 66 -113 2 c-63 1 -115 0 -116 -3z"/>
<path d="M15287 6469 c-82 -20 -154 -74 -176 -132 -6 -16 -11 -61 -11 -101 0
-73 0 -74 -29 -79 -38 -8 -45 -31 -36 -123 l7 -73 31 -3 32 -3 5 -185 5 -185
114 -3 114 -3 -6 191 -7 190 60 0 60 0 0 100 c0 73 -3 100 -12 101 -7 0 -37 0
-67 -1 l-54 -2 5 57 c6 66 12 74 64 82 62 9 64 14 45 101 l-16 77 -45 2 c-25
1 -62 -3 -83 -8z"/>
<path d="M15727 6469 c-86 -20 -154 -74 -176 -138 -6 -19 -11 -64 -11 -102 0
-66 0 -68 -29 -74 -38 -8 -42 -20 -34 -115 l6 -80 33 0 34 0 2 -187 3 -188
115 0 115 0 -3 110 c-1 61 -5 145 -8 188 l-6 77 61 0 61 0 0 100 c0 73 -3 100
-12 101 -7 0 -37 0 -65 -1 l-53 -1 0 34 c0 76 25 106 86 107 37 0 43 19 29 88
-7 35 -16 70 -19 78 -6 16 -68 18 -129 3z"/>
<path d="M16180 6200 c-69 -12 -114 -34 -160 -80 -68 -68 -85 -117 -85 -240 0
-98 2 -109 30 -158 34 -63 71 -97 140 -128 99 -45 244 -39 332 12 62 36 68 52
37 110 -41 78 -44 80 -102 50 -60 -30 -136 -35 -187 -10 -28 13 -52 41 -43 49
2 2 77 11 168 20 90 9 172 21 182 26 33 18 31 125 -4 193 -58 113 -183 177
-308 156z m94 -191 c26 -30 33 -54 19 -62 -5 -3 -43 -8 -85 -12 l-78 -7 0 29
c0 80 93 113 144 52z"/>
<path d="M14055 6180 c-66 -26 -131 -89 -164 -159 -22 -47 -26 -70 -26 -141 0
-73 4 -93 28 -142 34 -69 101 -131 164 -152 60 -20 165 -20 233 0 l53 16 -6
56 c-3 31 -11 74 -17 95 -10 34 -14 38 -33 32 -50 -17 -127 -17 -153 0 -61 39
-67 134 -13 188 29 28 33 29 92 24 34 -2 68 -6 76 -8 21 -6 67 147 51 167 -36
43 -200 56 -285 24z"/>
<path d="M14621 6190 c-112 -24 -188 -92 -222 -201 -23 -75 -24 -135 -2 -213
22 -81 102 -163 182 -189 67 -21 151 -22 222 -1 77 23 161 109 185 190 36 125
-1 274 -88 348 -66 57 -184 85 -277 66z m132 -211 c60 -46 57 -142 -6 -195
-40 -34 -90 -28 -129 16 -23 25 -28 39 -28 84 0 46 4 59 29 85 36 38 93 43
134 10z"/>
</g>
</svg>
