<?xml version="1.0" standalone="no"?>
<!DOCTYPE svg PUBLIC "-//W3C//DTD SVG 20010904//EN"
 "http://www.w3.org/TR/2001/REC-SVG-20010904/DTD/svg10.dtd">
<svg version="1.0" xmlns="http://www.w3.org/2000/svg"
 width="920.000000pt" height="353.000000pt" viewBox="0 0 920.000000 353.000000"
 preserveAspectRatio="xMidYMid meet">

<g transform="translate(0.000000,353.000000) scale(0.100000,-0.100000)"
fill="#000000" stroke="none">
<path d="M764 2876 c-58 -27 -106 -80 -123 -135 -16 -54 -16 -1898 0 -1952 16
-50 61 -105 112 -132 l42 -22 3783 -3 3783 -2 50 21 c58 25 111 82 127 138 17
57 17 1897 0 1955 -16 54 -90 128 -144 144 -32 9 -869 12 -3810 12 l-3769 0
-51 -24z m1493 -351 c-15 -148 -125 -268 -266 -291 l-44 -7 7 54 c8 62 35 128
72 176 45 59 152 121 213 122 23 1 24 -1 18 -54z m2551 -167 l-3 -203 -30 0
-30 0 -3 203 -2 202 35 0 35 0 -2 -202z m1022 -3 l0 -205 -26 0 c-17 0 -28 6
-31 20 -5 20 -5 20 -30 0 -58 -45 -148 -11 -174 67 -14 43 -6 113 17 149 33
49 109 70 150 39 10 -8 21 -15 24 -15 3 0 4 34 2 75 l-4 75 36 0 36 0 0 -205z
m1438 125 c-2 -44 0 -80 5 -80 4 0 7 4 7 8 0 11 46 32 70 32 72 0 102 -61 98
-195 l-3 -90 -30 0 -30 0 -3 100 c-2 74 -7 104 -19 117 -20 23 -45 23 -72 1
-18 -16 -21 -31 -23 -118 l-3 -100 -30 0 -30 0 -3 203 -2 202 36 0 36 0 -4
-80z m-3879 48 c80 -30 123 -126 101 -223 -23 -104 -85 -146 -222 -153 l-88
-4 0 195 0 196 38 4 c48 6 138 -2 171 -15z m3661 -63 c0 -33 2 -35 35 -35 28
0 35 -4 35 -20 0 -16 -7 -20 -35 -20 l-35 0 0 -83 c0 -86 8 -107 42 -107 13 0
18 -8 18 -25 0 -22 -4 -25 -38 -25 -67 0 -76 14 -82 131 -4 92 -7 104 -25 109
-11 3 -20 12 -20 20 0 8 9 17 20 20 12 4 21 16 23 32 3 24 15 34 50 37 7 1 12
-12 12 -34z m-3242 -70 c33 -36 34 -39 30 -107 -4 -66 -6 -72 -41 -104 -30
-28 -44 -34 -82 -34 -88 0 -145 55 -145 140 0 95 63 155 154 147 42 -4 55 -10
84 -42z m793 16 c28 -29 29 -32 29 -135 0 -58 1 -109 3 -113 1 -5 -13 -9 -30
-11 l-33 -3 0 104 c0 92 -2 106 -20 122 -16 15 -26 17 -48 9 -39 -14 -52 -48
-52 -146 l0 -88 -30 0 -30 0 0 140 0 140 30 0 c21 0 30 -5 30 -16 0 -13 5 -12
26 5 39 31 89 28 125 -8z m499 16 c93 -47 94 -214 1 -262 -44 -22 -113 -19
-145 6 -81 64 -73 208 14 251 41 21 95 23 130 5z m343 -16 c20 -19 22 -34 25
-141 l4 -120 -26 0 c-16 0 -26 6 -26 15 0 19 -9 19 -34 0 -56 -42 -141 1 -139
71 2 55 45 91 117 96 44 3 51 10 35 39 -10 19 -17 21 -70 16 -54 -5 -59 -3
-59 14 0 27 35 39 98 36 38 -3 59 -10 75 -26z m848 14 c44 -23 69 -71 69 -130
0 -90 -54 -145 -143 -145 -50 0 -88 24 -112 70 -22 42 -19 118 5 158 35 57
119 78 181 47z m371 -14 l33 -29 4 -117 3 -116 -33 3 -34 3 -1 75 c-3 124 -3
128 -20 144 -19 20 -44 20 -70 2 -16 -12 -20 -30 -24 -118 l-5 -103 -30 0 -30
0 -3 138 -3 137 31 0 c21 0 30 -5 30 -17 0 -14 2 -15 18 -1 42 37 92 37 134
-1z m1067 14 c30 -15 61 -76 61 -120 0 -25 -1 -25 -95 -25 -105 0 -112 -5 -74
-54 20 -25 27 -27 83 -25 56 3 61 1 64 -19 3 -17 -3 -22 -33 -28 -65 -12 -124
1 -158 34 -26 26 -31 41 -35 90 -3 42 1 68 12 91 33 62 113 88 175 56z m-3750
-32 c6 -21 15 -63 22 -93 11 -53 29 -91 29 -59 0 7 12 53 26 102 26 82 29 87
55 87 26 0 28 -4 56 -105 l28 -105 25 103 26 102 33 3 c30 3 32 2 25 -20 -4
-13 -23 -75 -43 -138 -36 -113 -37 -115 -66 -115 -29 0 -31 2 -59 103 l-30
102 -12 -47 c-7 -27 -21 -73 -31 -103 -16 -50 -21 -55 -47 -55 -28 0 -30 2
-67 130 -21 72 -39 133 -39 138 0 4 13 7 30 7 25 0 31 -5 39 -37z m-1667 -184
c72 -16 135 -49 182 -98 l39 -40 -44 -40 c-25 -22 -61 -68 -80 -103 -31 -58
-34 -70 -33 -148 0 -65 5 -96 21 -132 26 -56 89 -128 138 -154 19 -10 35 -24
35 -31 0 -53 -130 -263 -205 -332 -77 -71 -134 -75 -277 -22 -78 29 -137 26
-238 -9 -98 -35 -137 -37 -188 -11 -91 47 -211 218 -268 382 -92 264 -65 494
74 634 102 102 234 130 372 80 108 -40 138 -41 217 -12 131 49 167 54 255 36z
m3414 -340 c24 -6 47 -15 49 -20 3 -4 0 -29 -6 -54 -10 -41 -15 -46 -33 -40
-114 33 -187 30 -236 -11 -25 -22 -30 -33 -30 -70 0 -59 25 -82 150 -141 148
-69 192 -122 191 -234 0 -96 -43 -159 -136 -200 -86 -38 -246 -35 -327 7 -27
14 -27 14 -13 60 7 25 15 47 17 49 2 2 30 -6 63 -17 45 -15 79 -19 133 -16 64
3 75 7 102 34 42 41 48 89 18 134 -17 26 -48 47 -125 85 -153 75 -203 132
-203 232 0 89 58 167 147 199 47 16 179 18 239 3z m-2087 -382 c68 -210 126
-388 128 -394 3 -10 -13 -13 -65 -13 l-69 0 -35 113 -35 112 -130 3 -131 3
-21 -73 c-12 -40 -28 -91 -35 -113 l-13 -40 -68 -3 c-55 -2 -67 0 -62 11 3 8
61 186 128 396 l123 381 80 0 81 0 124 -383z m2456 236 l0 -68 68 -3 67 -3 0
-44 0 -44 -67 -3 -68 -3 0 -160 c0 -195 6 -212 82 -217 l48 -3 3 -46 c3 -45 2
-47 -29 -53 -90 -18 -175 9 -206 66 -15 28 -18 62 -21 226 l-4 192 -42 0 -42
0 0 45 0 45 43 0 43 0 0 53 0 53 48 16 c78 26 77 27 77 -49z m1623 -85 c75
-35 122 -125 122 -234 l0 -64 -191 0 -192 0 6 -37 c18 -107 128 -156 274 -123
30 6 56 10 58 8 1 -1 6 -22 10 -45 l6 -41 -77 -17 c-171 -39 -303 9 -367 130
-29 56 -36 194 -13 263 19 56 82 134 128 158 70 36 161 37 236 2z m-3406 -14
c30 -21 53 -49 76 -95 30 -57 34 -75 34 -145 0 -97 -12 -146 -53 -207 -74
-112 -243 -142 -331 -59 l-28 26 0 -147 0 -147 -65 0 -65 0 0 384 c0 211 -3
391 -6 400 -5 14 3 16 55 16 l61 0 0 -42 0 -42 33 32 c50 48 92 63 174 59 61
-2 78 -7 115 -33z m627 16 c96 -48 147 -155 139 -289 -6 -99 -37 -169 -96
-221 -90 -79 -226 -81 -297 -4 l-25 27 0 -152 0 -152 -61 3 -61 3 -2 398 -2
397 52 0 c56 0 64 -8 64 -58 l0 -26 33 31 c50 48 86 62 155 63 43 0 75 -6 101
-20z m1754 6 c61 -22 103 -62 136 -127 27 -55 31 -72 31 -148 0 -74 -4 -95
-29 -147 -50 -107 -146 -161 -269 -152 -103 8 -180 58 -228 148 -29 54 -27
240 3 295 28 53 78 99 133 124 53 24 164 28 223 7z m587 -46 l0 -60 -40 0
c-53 0 -95 -23 -117 -63 -15 -26 -19 -63 -21 -215 l-4 -183 -61 3 -62 3 -3
283 -2 282 55 0 55 0 1 -32 c1 -18 1 -39 0 -45 -3 -22 15 -14 30 13 22 42 77
74 126 74 l43 0 0 -60z"/>
<path d="M5653 2368 c-27 -31 -35 -67 -22 -111 15 -57 70 -76 109 -37 28 28
29 129 2 153 -26 24 -65 21 -89 -5z"/>
<path d="M3258 2493 c-16 -4 -18 -20 -18 -149 l0 -144 38 0 c46 0 99 26 125
62 45 61 27 182 -32 213 -31 16 -89 25 -113 18z"/>
<path d="M3656 2368 c-38 -60 -22 -148 29 -168 33 -13 60 1 80 40 20 39 19 79
-5 118 -16 26 -26 32 -55 32 -25 0 -38 -6 -49 -22z"/>
<path d="M4985 2367 c-37 -57 -22 -145 29 -168 71 -33 122 89 70 169 -20 31
-78 31 -99 -1z"/>
<path d="M5327 2272 c-38 -42 -3 -96 46 -71 29 16 37 28 37 62 0 24 -4 27 -33
27 -20 0 -41 -8 -50 -18z"/>
<path d="M6170 2358 c-29 -46 -22 -113 15 -146 67 -57 142 46 99 135 -16 33
-24 38 -56 41 -33 3 -40 -1 -58 -30z"/>
<path d="M7625 2375 c-44 -43 -34 -56 38 -53 56 3 62 5 59 23 -4 23 -38 55
-59 55 -7 0 -25 -11 -38 -25z"/>
<path d="M3416 1714 c-4 -20 -25 -93 -47 -164 -21 -70 -39 -130 -39 -134 0 -3
47 -6 104 -6 l105 0 -39 115 c-21 63 -44 139 -51 170 -7 30 -15 55 -19 55 -4
0 -11 -16 -14 -36z"/>
<path d="M7565 1573 c-37 -10 -64 -35 -85 -77 -11 -23 -20 -48 -20 -54 0 -9
37 -12 130 -12 146 0 147 1 116 75 -22 52 -86 83 -141 68z"/>
<path d="M4100 1553 c-23 -9 -60 -45 -76 -75 -22 -42 -19 -194 4 -238 51 -96
186 -90 239 10 31 59 32 173 3 231 -33 63 -107 95 -170 72z"/>
<path d="M4733 1540 c-53 -32 -68 -72 -68 -180 0 -76 4 -102 18 -123 50 -77
154 -89 213 -24 82 89 66 284 -26 332 -40 21 -99 19 -137 -5z"/>
<path d="M6518 1553 c-15 -9 -38 -38 -53 -64 -20 -38 -25 -60 -25 -120 1 -117
45 -190 126 -205 144 -27 225 238 110 363 -27 30 -40 36 -82 40 -35 2 -57 -1
-76 -14z"/>
</g>
</svg>
